<?xml version="1.0" standalone="no"?>
<!DOCTYPE svg PUBLIC "-//W3C//DTD SVG 20010904//EN"
 "http://www.w3.org/TR/2001/REC-SVG-20010904/DTD/svg10.dtd">
<svg version="1.0" xmlns="http://www.w3.org/2000/svg"
 width="1000.000000pt" height="1000.000000pt" viewBox="0 0 1000.000000 1000.000000"
 preserveAspectRatio="xMidYMid meet">
<metadata>
Created by potrace 1.11, written by Peter Selinger 2001-2013
</metadata>
<g transform="translate(0.000000,1000.000000) scale(0.100000,-0.100000)"
fill="#000000" stroke="none">
<path d="M4680 9980 c-1578 -112 -2978 -926 -3845 -2235 -479 -723 -754 -1538
-816 -2420 -15 -210 -6 -653 16 -854 111 -1006 497 -1913 1146 -2691 133 -160
449 -476 609 -609 800 -667 1706 -1044 2770 -1153 192 -20 736 -17 940 5 1056
115 2001 525 2786 1209 934 813 1538 1961 1678 3188 121 1059 -99 2135 -623
3050 -217 379 -454 691 -766 1009 -243 248 -419 400 -680 586 -701 502 -1527
811 -2405 900 -184 19 -634 27 -810 15z m565 -390 c768 -44 1484 -265 2133
-656 766 -463 1388 -1147 1773 -1950 521 -1085 596 -2336 208 -3471 -299 -873
-852 -1637 -1585 -2190 -1205 -908 -2758 -1170 -4189 -706 -565 183 -1082 470
-1550 861 -116 98 -449 431 -547 547 -866 1037 -1238 2361 -1033 3680 113 722
401 1413 839 2010 918 1250 2419 1963 3951 1875z"/>
<path d="M4754 9509 c-458 -25 -936 -126 -1354 -286 -896 -344 -1661 -960
-2183 -1759 -396 -606 -631 -1266 -714 -2006 -21 -191 -24 -693 -5 -878 60
-583 209 -1106 457 -1600 845 -1687 2639 -2676 4505 -2484 749 77 1416 317
2050 739 645 430 1157 1003 1512 1691 267 518 427 1064 482 1643 21 215 21
636 1 847 -102 1070 -563 2039 -1331 2796 -367 361 -733 621 -1198 849 -542
266 -1125 416 -1747 449 -213 11 -265 11 -475 -1z m-231 -256 c3 -21 11 -98
18 -170 7 -73 15 -133 18 -132 3 0 41 40 83 88 l76 88 139 12 c76 7 147 15
158 18 11 3 -29 -45 -89 -105 l-109 -111 141 -147 c77 -82 139 -151 137 -155
-3 -3 -73 -12 -156 -19 l-153 -13 -72 79 -73 79 -31 -30 c-31 -29 -31 -32 -25
-91 l6 -60 -118 -11 c-65 -6 -119 -10 -121 -8 -3 3 -72 665 -72 691 0 10 95
24 216 33 17 1 22 -6 27 -36z m1669 -74 c305 -76 361 -95 403 -139 54 -56 62
-166 20 -266 -33 -80 -101 -123 -196 -124 -31 0 -123 17 -213 39 l-157 39 -8
-22 c-5 -11 -17 -56 -27 -98 -13 -57 -22 -78 -33 -78 -18 0 -241 56 -246 62
-7 6 160 658 168 658 4 0 134 -32 289 -71z m-2233 -248 c42 -22 104 -87 99
-103 -4 -10 -201 -88 -224 -88 -6 0 -19 9 -29 20 -34 37 -133 20 -190 -34 -28
-27 -35 -41 -35 -71 0 -72 58 -145 115 -145 74 0 152 52 164 109 6 34 10 36
121 77 l115 42 7 -31 c17 -74 -15 -160 -83 -222 -52 -47 -183 -109 -285 -135
-185 -48 -299 -8 -366 127 -81 165 -18 305 177 398 63 30 170 66 235 79 46 9
140 -3 179 -23z m3188 -262 c83 -27 195 -102 260 -172 61 -68 88 -137 80 -206
-7 -60 -45 -161 -60 -161 -7 0 -108 56 -226 125 -117 69 -218 125 -222 125
-14 0 -10 -48 6 -80 22 -42 109 -90 163 -90 34 0 64 -12 149 -62 106 -62 106
-62 84 -80 -74 -59 -213 -46 -361 33 -235 127 -317 275 -242 434 43 89 99 135
197 159 32 7 105 -3 172 -25z m-4114 -164 c16 -10 71 -78 124 -151 52 -74 106
-142 120 -152 l26 -19 -99 -71 c-92 -65 -100 -69 -117 -55 -9 9 -18 14 -20 12
-1 -2 -10 -20 -19 -40 -23 -52 -71 -103 -143 -154 -151 -108 -249 -113 -322
-18 -22 29 -28 47 -28 87 0 74 36 120 184 238 133 106 144 117 135 141 -11 28
-38 28 -93 0 -58 -30 -104 -83 -99 -116 2 -13 -23 -37 -92 -87 l-95 -68 -12
26 c-17 37 -16 96 2 138 8 20 41 62 74 94 63 62 230 176 296 204 51 21 140 17
178 -9z m4925 -434 c74 -47 253 -237 285 -301 34 -67 36 -138 7 -185 -11 -19
-71 -80 -132 -137 -61 -56 -119 -115 -128 -130 l-17 -28 -81 84 c-81 83 -92
99 -72 111 19 12 10 23 -24 29 -107 20 -296 229 -296 329 0 45 30 97 73 128
84 61 164 29 332 -132 111 -107 148 -129 161 -94 11 28 -7 69 -50 112 -36 36
-50 43 -83 43 -36 0 -44 6 -117 86 -43 47 -76 87 -74 89 2 2 19 11 38 20 52
23 119 14 178 -24z m-5653 -224 c135 -131 245 -242 245 -245 -1 -4 -36 -45
-80 -91 l-79 -85 -256 249 -256 248 83 84 c45 46 86 82 90 81 4 -2 118 -110
253 -241z m4221 148 c69 -44 141 -111 160 -146 21 -42 18 -92 -8 -116 -13 -11
-113 -66 -223 -121 -248 -125 -339 -183 -435 -281 -79 -79 -115 -139 -105
-170 3 -10 51 -61 107 -112 161 -149 250 -284 314 -479 24 -74 28 -101 28
-210 1 -73 -8 -200 -21 -305 -20 -163 -21 -198 -13 -365 16 -304 45 -466 195
-1095 121 -507 158 -699 171 -889 17 -241 -60 -553 -192 -778 -210 -358 -603
-654 -1015 -763 -178 -47 -261 -56 -479 -56 -294 -1 -533 37 -759 120 -207 75
-544 312 -702 492 -234 268 -375 538 -425 819 -25 136 -25 471 -1 595 68 351
239 676 595 1130 343 439 386 495 462 600 181 253 318 506 385 710 46 141 82
195 219 330 124 122 222 193 335 241 138 60 180 67 375 70 158 2 182 4 205 21
68 50 206 276 199 325 -4 32 -55 54 -168 73 -276 44 -617 -12 -987 -163 -174
-71 -208 -124 -616 -962 -91 -189 -187 -343 -302 -485 -95 -117 -302 -338
-401 -427 -394 -352 -849 -518 -1283 -468 -102 12 -131 28 -131 74 0 34 32
122 80 216 41 82 57 144 85 348 76 538 187 941 347 1255 171 335 441 618 728
762 102 51 256 101 369 120 129 22 413 17 536 -10 111 -23 240 -60 327 -92 92
-34 208 -37 353 -8 87 17 139 20 415 20 345 -1 371 -4 633 -76 92 -26 113 -29
142 -19 21 7 90 63 172 138 76 70 151 137 167 150 44 33 95 29 162 -13z
m-4729 -431 c46 -27 74 -69 75 -114 1 -28 2 -29 29 -14 33 17 96 18 136 3 64
-24 133 -119 133 -184 0 -16 -11 -55 -23 -86 -23 -54 -371 -570 -385 -568 -4
0 -128 85 -277 188 -162 112 -270 193 -269 202 1 19 324 490 368 538 41 44
102 73 141 65 17 -3 49 -17 72 -30z m6798 -292 c45 -79 47 -84 29 -97 -11 -8
-27 -17 -36 -20 -23 -8 -23 -25 0 -25 34 0 121 -51 151 -89 31 -39 68 -108 60
-114 -2 -2 -44 -27 -94 -55 l-90 -52 -18 54 c-33 98 -121 175 -185 160 -15 -4
-69 -31 -121 -61 -51 -30 -97 -51 -101 -46 -11 11 -120 197 -117 199 1 1 103
61 227 132 200 117 225 129 236 114 6 -9 33 -54 59 -100z m-5649 -4973 c57
-45 104 -83 104 -85 0 -7 -264 -341 -299 -377 -120 -128 -269 -100 -469 87
-102 96 -138 180 -112 262 15 50 71 144 85 144 5 0 56 -37 112 -81 l102 -80
-29 -41 c-37 -51 -38 -82 -4 -113 28 -26 63 -32 92 -16 10 5 82 93 162 195 80
102 146 186 148 186 2 0 50 -37 108 -81z m4403 -108 c17 -12 31 -26 31 -30 0
-4 -46 -41 -102 -81 -84 -60 -109 -73 -136 -71 -55 3 -146 -68 -127 -99 12
-20 38 -9 167 66 71 42 148 83 171 91 130 45 243 -98 178 -225 -37 -71 -181
-197 -311 -270 -75 -42 -159 -63 -203 -51 -39 10 -90 47 -85 60 2 5 50 42 108
84 95 68 107 74 140 69 30 -5 43 -1 80 28 47 35 57 64 29 81 -12 7 -36 -3
-103 -42 -143 -84 -206 -113 -250 -113 -53 -1 -80 13 -116 64 -57 79 -33 166
74 266 132 123 293 207 383 199 22 -3 55 -14 72 -26z m-4099 -253 c176 -56
330 -170 358 -267 30 -97 -1 -204 -82 -287 -97 -99 -210 -99 -411 1 -225 111
-298 233 -236 396 24 64 79 132 125 156 69 37 134 37 246 1z m3487 -143 c50
-119 50 -111 1 -119 -62 -9 -144 -52 -169 -88 -33 -45 -28 -93 21 -207 24 -56
41 -103 39 -104 -21 -16 -213 -87 -220 -80 -17 17 -199 467 -192 474 6 5 111
51 199 86 6 2 17 -14 24 -37 7 -22 16 -40 19 -40 3 0 14 20 25 45 29 72 147
159 205 152 8 -1 29 -38 48 -82z m-2642 -186 c32 -12 78 -40 102 -62 24 -22
43 -34 43 -26 1 38 14 39 125 13 61 -15 111 -27 112 -28 1 0 -27 -117 -61
-258 -69 -282 -86 -321 -153 -354 -142 -69 -512 21 -606 147 -17 24 -37 119
-24 119 11 0 249 -58 250 -62 25 -49 56 -68 123 -76 79 -8 104 7 124 78 l8 27
-72 -5 c-175 -11 -347 75 -386 193 -16 50 -8 141 18 191 48 94 137 138 263
130 42 -3 102 -15 134 -27z m1907 -29 c51 -15 118 -68 145 -115 23 -39 56
-135 50 -142 -2 -1 -117 -24 -255 -50 -160 -31 -252 -52 -252 -60 0 -6 12 -21
26 -32 49 -38 198 -19 224 29 7 13 41 24 129 41 66 12 123 20 127 17 13 -14
-20 -82 -58 -120 -47 -47 -115 -80 -224 -109 -96 -25 -239 -30 -307 -10 -163
47 -237 262 -139 405 83 122 354 196 534 146z m-990 -108 l58 -29 0 24 c0 23
1 23 115 23 84 0 117 -3 120 -12 3 -7 1 -132 -3 -278 -9 -304 -13 -322 -89
-370 -68 -43 -131 -55 -288 -54 -202 1 -310 37 -348 117 -34 71 -33 72 110 69
118 -3 129 -5 145 -25 15 -19 26 -22 97 -22 97 0 120 16 128 89 l6 46 -49 -22
c-66 -31 -231 -33 -313 -4 -203 70 -220 352 -27 446 102 49 242 50 338 2z"/>
<path d="M6111 8992 c-6 -21 -13 -52 -17 -69 l-6 -30 86 -22 c112 -28 150 -27
170 1 24 34 20 75 -9 94 -18 11 -182 61 -212 64 -1 0 -7 -17 -12 -38z"/>
<path d="M7060 8512 l-22 -18 117 -68 c78 -45 121 -64 127 -58 17 17 -10 80
-45 106 -78 58 -137 70 -177 38z"/>
<path d="M2862 8142 c-82 -76 -96 -104 -70 -130 20 -20 63 -13 105 17 53 39
83 82 83 121 0 32 -15 70 -28 70 -4 -1 -44 -36 -90 -78z"/>
<path d="M7748 7779 c-30 -17 -22 -64 19 -110 43 -47 81 -69 120 -69 30 0 76
26 71 40 -6 14 -169 150 -181 150 -7 0 -20 -5 -29 -11z"/>
<path d="M3552 7759 c-226 -40 -534 -221 -688 -407 -214 -257 -326 -478 -438
-865 -57 -196 -77 -297 -122 -596 -31 -216 -44 -271 -90 -391 -7 -19 -13 -66
-14 -103 0 -91 19 -112 115 -122 76 -9 274 8 380 32 247 55 557 245 791 485
295 302 450 528 605 882 90 205 198 415 279 543 61 96 75 127 97 215 42 162
30 181 -158 246 -223 76 -270 84 -499 88 -113 1 -229 -1 -258 -7z"/>
<path d="M5315 6959 c-69 -14 -171 -47 -226 -75 -118 -59 -325 -248 -386 -351
-14 -25 -50 -107 -79 -183 -128 -337 -243 -518 -703 -1110 -330 -424 -476
-684 -558 -1000 -24 -89 -25 -110 -24 -344 1 -340 19 -428 142 -666 197 -380
551 -698 917 -820 48 -16 175 -45 282 -64 267 -49 414 -50 634 -5 317 65 492
144 698 316 367 305 545 716 509 1172 -11 137 -96 549 -176 856 -80 308 -141
687 -151 945 -5 120 -2 174 17 315 29 208 29 294 0 405 -78 295 -295 539 -532
595 -80 19 -298 27 -364 14z"/>
<path d="M1623 7288 c-26 -29 -123 -169 -123 -179 0 -4 14 -16 32 -27 l31 -20
57 82 c78 112 83 122 70 146 -14 26 -42 25 -67 -2z"/>
<path d="M1833 7168 c-30 -34 -133 -185 -133 -195 0 -4 18 -20 39 -35 l38 -27
70 102 c83 121 86 128 67 156 -20 27 -55 27 -81 -1z"/>
<path d="M3161 1754 c-28 -20 -60 -88 -61 -128 0 -39 63 -99 122 -115 39 -11
50 -11 77 4 60 31 95 119 68 172 -19 36 -103 83 -149 83 -18 0 -44 -7 -57 -16z"/>
<path d="M3955 1437 c-37 -31 -44 -93 -16 -129 22 -28 96 -58 143 -58 60 0
108 46 108 103 0 82 -168 142 -235 84z"/>
<path d="M5741 1446 c-53 -19 -108 -96 -68 -96 31 0 243 43 252 52 7 6 0 18
-18 34 -22 19 -39 24 -80 23 -29 0 -67 -6 -86 -13z"/>
<path d="M4860 1339 c-58 -23 -82 -76 -60 -130 17 -40 57 -59 125 -59 89 0
135 33 135 97 0 77 -110 128 -200 92z"/>
</g>
</svg>
